<svg fill="#000" width="800" height="800" viewBox="144 144 512 512" xmlns="http://www.w3.org/2000/svg"><g><path d="m264.23 339.75c15.91 27.559 12.059 59.57-8.6016 71.5-20.664 11.93-50.312-.73828-66.227-28.301-15.91-27.559-12.059-59.57 8.6016-71.5 20.664-11.93 50.312.73828 66.227 28.301"/><path d="m601.98 310.03c20.664 11.93 24.516 43.941 8.6016 71.504-15.91 27.559-45.562 40.23-66.223 28.301-20.664-11.93-24.516-43.945-8.6016-71.504 15.91-27.559 45.562-40.23 66.223-28.301"/><path d="m368.51 242.56c0 34.781-21.148 62.977-47.234 62.977-26.086.0-47.23-28.195-47.23-62.977s21.145-62.977 47.23-62.977c26.086.0 47.234 28.195 47.234 62.977"/><path d="m525.95 242.56c0 34.781-21.145 62.977-47.23 62.977s-47.23-28.195-47.23-62.977 21.145-62.977 47.23-62.977 47.23 28.195 47.23 62.977"/><path d="m520.79 451.64c-14.391-11.082-25.16-26.387-29.598-44.02-3.9688-15.742-12.059-30.605-24.371-42.949-18.453-18.422-42.637-27.648-66.816-27.648-24.184.0-48.336 9.2266-66.789 27.676-12.344 12.312-20.402 27.207-24.402 42.949-4.4375 17.605-15.207 32.906-29.598 43.992-26.609 20.531-41.973 54.82-34.953 92.449 6.7695 36.336 35.992 66.219 72.109 74.059 17.887 3.8711 34.984 2.5508 50.316-2.6133 21.883-7.4297 44.777-7.4297 66.66.0 15.336 5.1953 32.434 6.5195 50.316 2.6133 36.117-7.8398 65.336-37.723 72.109-74.059 6.9922-37.629-8.375-71.891-34.984-92.449z"/></g></svg>